<mxfile host="app.diagrams.net" agent="Mozilla/5.0 (Windows NT 10.0; Win64; x64) AppleWebKit/537.36 (KHTML, like Gecko) Chrome/127.0.0.0 Safari/537.36" version="24.7.6">
  <diagram name="Page-1" id="PFaxBS-Ukp7_NDawzfFm">
    <mxGraphModel dx="1050" dy="652" grid="1" gridSize="10" guides="1" tooltips="1" connect="1" arrows="1" fold="1" page="1" pageScale="1" pageWidth="827" pageHeight="1169" math="0" shadow="0">
      <root>
        <mxCell id="0" />
        <mxCell id="1" parent="0" />
        <mxCell id="_dyGJRKh12PWZx9ckZMx-6" value="" style="edgeStyle=orthogonalEdgeStyle;rounded=0;orthogonalLoop=1;jettySize=auto;html=1;strokeWidth=2;" parent="1" source="7YQOk0jtN4cWd0VONJ17-51" target="_dyGJRKh12PWZx9ckZMx-5" edge="1">
          <mxGeometry relative="1" as="geometry" />
        </mxCell>
        <mxCell id="_dyGJRKh12PWZx9ckZMx-10" style="edgeStyle=orthogonalEdgeStyle;rounded=0;orthogonalLoop=1;jettySize=auto;html=1;entryX=1;entryY=0.5;entryDx=0;entryDy=0;strokeWidth=2;" parent="1" source="7YQOk0jtN4cWd0VONJ17-51" target="7YQOk0jtN4cWd0VONJ17-68" edge="1">
          <mxGeometry relative="1" as="geometry">
            <mxPoint x="240" y="380" as="targetPoint" />
          </mxGeometry>
        </mxCell>
        <mxCell id="_dyGJRKh12PWZx9ckZMx-13" style="edgeStyle=orthogonalEdgeStyle;rounded=0;orthogonalLoop=1;jettySize=auto;html=1;entryX=0.5;entryY=0;entryDx=0;entryDy=0;strokeWidth=2;" parent="1" source="7YQOk0jtN4cWd0VONJ17-51" target="7YQOk0jtN4cWd0VONJ17-56" edge="1">
          <mxGeometry relative="1" as="geometry" />
        </mxCell>
        <mxCell id="7YQOk0jtN4cWd0VONJ17-51" value="" style="rounded=1;whiteSpace=wrap;html=1;absoluteArcSize=1;arcSize=14;strokeWidth=2;" parent="1" vertex="1">
          <mxGeometry x="268.46" y="275" width="106.54" height="50" as="geometry" />
        </mxCell>
        <mxCell id="7YQOk0jtN4cWd0VONJ17-6" value="" style="group" parent="1" vertex="1" connectable="0">
          <mxGeometry x="282.98" y="10" width="80" height="40" as="geometry" />
        </mxCell>
        <mxCell id="7YQOk0jtN4cWd0VONJ17-1" value="" style="strokeWidth=2;html=1;shape=mxgraph.flowchart.start_1;whiteSpace=wrap;" parent="7YQOk0jtN4cWd0VONJ17-6" vertex="1">
          <mxGeometry width="80" height="40" as="geometry" />
        </mxCell>
        <mxCell id="7YQOk0jtN4cWd0VONJ17-2" value="&lt;b&gt;&lt;font style=&quot;font-size: 13px;&quot;&gt;Start&lt;/font&gt;&lt;/b&gt;" style="text;strokeColor=none;align=center;fillColor=none;html=1;verticalAlign=middle;whiteSpace=wrap;rounded=0;" parent="7YQOk0jtN4cWd0VONJ17-6" vertex="1">
          <mxGeometry x="16" y="10" width="48" height="20" as="geometry" />
        </mxCell>
        <mxCell id="_dyGJRKh12PWZx9ckZMx-45" style="edgeStyle=orthogonalEdgeStyle;rounded=0;orthogonalLoop=1;jettySize=auto;html=1;exitX=0.5;exitY=1;exitDx=0;exitDy=0;" parent="7YQOk0jtN4cWd0VONJ17-6" source="7YQOk0jtN4cWd0VONJ17-2" target="7YQOk0jtN4cWd0VONJ17-2" edge="1">
          <mxGeometry relative="1" as="geometry" />
        </mxCell>
        <mxCell id="7YQOk0jtN4cWd0VONJ17-23" value="" style="rounded=1;whiteSpace=wrap;html=1;absoluteArcSize=1;arcSize=14;strokeWidth=2;" parent="1" vertex="1">
          <mxGeometry x="440" y="170" width="100" height="40" as="geometry" />
        </mxCell>
        <mxCell id="7YQOk0jtN4cWd0VONJ17-24" value="&lt;b style=&quot;&quot;&gt;&lt;font style=&quot;font-size: 13px;&quot;&gt;Clean Text&lt;/font&gt;&lt;/b&gt;" style="text;strokeColor=none;align=center;fillColor=none;html=1;verticalAlign=middle;whiteSpace=wrap;rounded=0;" parent="1" vertex="1">
          <mxGeometry x="430" y="175" width="120" height="30" as="geometry" />
        </mxCell>
        <mxCell id="7YQOk0jtN4cWd0VONJ17-35" value="" style="group;fontStyle=4" parent="1" vertex="1" connectable="0">
          <mxGeometry x="100" y="160" width="120" height="30" as="geometry" />
        </mxCell>
        <mxCell id="7YQOk0jtN4cWd0VONJ17-22" value="" style="rounded=1;whiteSpace=wrap;html=1;absoluteArcSize=1;arcSize=14;strokeWidth=2;" parent="7YQOk0jtN4cWd0VONJ17-35" vertex="1">
          <mxGeometry width="120" height="30" as="geometry" />
        </mxCell>
        <mxCell id="7YQOk0jtN4cWd0VONJ17-29" value="&lt;b&gt;&lt;span style=&quot;line-height: 107%;&quot;&gt;&lt;font style=&quot;font-size: 13px;&quot;&gt;Lemmatization&lt;/font&gt;&lt;/span&gt;&lt;/b&gt;" style="text;strokeColor=none;align=center;fillColor=none;html=1;verticalAlign=middle;whiteSpace=wrap;rounded=0;" parent="7YQOk0jtN4cWd0VONJ17-35" vertex="1">
          <mxGeometry width="120" height="22.5" as="geometry" />
        </mxCell>
        <mxCell id="7YQOk0jtN4cWd0VONJ17-36" style="edgeStyle=orthogonalEdgeStyle;rounded=0;orthogonalLoop=1;jettySize=auto;html=1;entryX=1;entryY=0.5;entryDx=0;entryDy=0;strokeWidth=2;" parent="1" source="7YQOk0jtN4cWd0VONJ17-25" target="7YQOk0jtN4cWd0VONJ17-29" edge="1">
          <mxGeometry relative="1" as="geometry" />
        </mxCell>
        <mxCell id="7YQOk0jtN4cWd0VONJ17-38" value="" style="group;fontStyle=4" parent="1" vertex="1" connectable="0">
          <mxGeometry x="100" y="230" width="110" height="40" as="geometry" />
        </mxCell>
        <mxCell id="7YQOk0jtN4cWd0VONJ17-21" value="" style="rounded=1;whiteSpace=wrap;html=1;absoluteArcSize=1;arcSize=14;strokeWidth=2;" parent="7YQOk0jtN4cWd0VONJ17-38" vertex="1">
          <mxGeometry x="9.166666666666666" width="91.66666666666666" height="40" as="geometry" />
        </mxCell>
        <mxCell id="7YQOk0jtN4cWd0VONJ17-27" value="&lt;b style=&quot;&quot;&gt;&lt;font style=&quot;font-size: 13px;&quot;&gt;Tokenize words&lt;/font&gt;&lt;/b&gt;" style="text;strokeColor=none;align=center;fillColor=none;html=1;verticalAlign=middle;whiteSpace=wrap;rounded=0;" parent="7YQOk0jtN4cWd0VONJ17-38" vertex="1">
          <mxGeometry y="5" width="110" height="30" as="geometry" />
        </mxCell>
        <mxCell id="7YQOk0jtN4cWd0VONJ17-44" style="edgeStyle=orthogonalEdgeStyle;rounded=0;orthogonalLoop=1;jettySize=auto;html=1;strokeWidth=2;" parent="1" source="7YQOk0jtN4cWd0VONJ17-25" target="7YQOk0jtN4cWd0VONJ17-21" edge="1">
          <mxGeometry relative="1" as="geometry">
            <Array as="points">
              <mxPoint x="240" y="229" />
              <mxPoint x="240" y="250" />
            </Array>
          </mxGeometry>
        </mxCell>
        <mxCell id="7YQOk0jtN4cWd0VONJ17-45" style="edgeStyle=orthogonalEdgeStyle;rounded=0;orthogonalLoop=1;jettySize=auto;html=1;entryX=0;entryY=0.5;entryDx=0;entryDy=0;strokeWidth=2;" parent="1" source="7YQOk0jtN4cWd0VONJ17-25" target="7YQOk0jtN4cWd0VONJ17-23" edge="1">
          <mxGeometry relative="1" as="geometry">
            <Array as="points">
              <mxPoint x="410" y="199" />
              <mxPoint x="410" y="190" />
            </Array>
          </mxGeometry>
        </mxCell>
        <mxCell id="7YQOk0jtN4cWd0VONJ17-48" style="edgeStyle=orthogonalEdgeStyle;rounded=0;orthogonalLoop=1;jettySize=auto;html=1;entryX=0;entryY=0.5;entryDx=0;entryDy=0;strokeWidth=2;" parent="1" source="7YQOk0jtN4cWd0VONJ17-25" target="7YQOk0jtN4cWd0VONJ17-12" edge="1">
          <mxGeometry relative="1" as="geometry">
            <Array as="points">
              <mxPoint x="400" y="200" />
              <mxPoint x="400" y="263" />
            </Array>
          </mxGeometry>
        </mxCell>
        <mxCell id="7YQOk0jtN4cWd0VONJ17-50" value="&lt;b style=&quot;&quot;&gt;&lt;font style=&quot;font-size: 13px;&quot;&gt;convert to&amp;nbsp;&lt;/font&gt;&lt;/b&gt;&lt;div&gt;&lt;b style=&quot;&quot;&gt;&lt;font style=&quot;font-size: 13px;&quot;&gt;numeric feature&amp;nbsp;&lt;/font&gt;&lt;/b&gt;&lt;/div&gt;" style="text;strokeColor=none;align=center;fillColor=none;html=1;verticalAlign=middle;whiteSpace=wrap;rounded=0;" parent="1" vertex="1">
          <mxGeometry x="262.98" y="285" width="120" height="25" as="geometry" />
        </mxCell>
        <mxCell id="7YQOk0jtN4cWd0VONJ17-52" style="edgeStyle=orthogonalEdgeStyle;rounded=0;orthogonalLoop=1;jettySize=auto;html=1;strokeWidth=2;" parent="1" source="7YQOk0jtN4cWd0VONJ17-3" target="7YQOk0jtN4cWd0VONJ17-25" edge="1">
          <mxGeometry relative="1" as="geometry" />
        </mxCell>
        <mxCell id="7YQOk0jtN4cWd0VONJ17-53" style="edgeStyle=orthogonalEdgeStyle;rounded=0;orthogonalLoop=1;jettySize=auto;html=1;strokeWidth=2;" parent="1" source="7YQOk0jtN4cWd0VONJ17-25" target="7YQOk0jtN4cWd0VONJ17-51" edge="1">
          <mxGeometry relative="1" as="geometry" />
        </mxCell>
        <mxCell id="7YQOk0jtN4cWd0VONJ17-58" style="edgeStyle=orthogonalEdgeStyle;rounded=0;orthogonalLoop=1;jettySize=auto;html=1;strokeWidth=2;" parent="1" source="7YQOk0jtN4cWd0VONJ17-54" target="7YQOk0jtN4cWd0VONJ17-57" edge="1">
          <mxGeometry relative="1" as="geometry" />
        </mxCell>
        <mxCell id="_dyGJRKh12PWZx9ckZMx-16" style="edgeStyle=orthogonalEdgeStyle;rounded=0;orthogonalLoop=1;jettySize=auto;html=1;entryX=0.5;entryY=0;entryDx=0;entryDy=0;strokeWidth=2;" parent="1" source="7YQOk0jtN4cWd0VONJ17-54" target="7YQOk0jtN4cWd0VONJ17-61" edge="1">
          <mxGeometry relative="1" as="geometry" />
        </mxCell>
        <mxCell id="7YQOk0jtN4cWd0VONJ17-54" value="" style="strokeWidth=2;html=1;shape=mxgraph.flowchart.decision;whiteSpace=wrap;" parent="1" vertex="1">
          <mxGeometry x="264.76" y="450" width="115" height="90" as="geometry" />
        </mxCell>
        <mxCell id="7YQOk0jtN4cWd0VONJ17-55" value="&lt;b&gt;&lt;font style=&quot;font-size: 13px;&quot;&gt;is the class balanced?&lt;/font&gt;&lt;/b&gt;" style="text;strokeColor=none;align=center;fillColor=none;html=1;verticalAlign=middle;whiteSpace=wrap;rounded=0;" parent="1" vertex="1">
          <mxGeometry x="262.26" y="480" width="120" height="30" as="geometry" />
        </mxCell>
        <mxCell id="7YQOk0jtN4cWd0VONJ17-56" value="" style="rounded=1;whiteSpace=wrap;html=1;absoluteArcSize=1;arcSize=14;strokeWidth=2;" parent="1" vertex="1">
          <mxGeometry x="261.73" y="357.5" width="120" height="60" as="geometry" />
        </mxCell>
        <mxCell id="_dyGJRKh12PWZx9ckZMx-19" style="edgeStyle=orthogonalEdgeStyle;rounded=0;orthogonalLoop=1;jettySize=auto;html=1;entryX=1;entryY=0.5;entryDx=0;entryDy=0;strokeWidth=2;" parent="1" source="7YQOk0jtN4cWd0VONJ17-57" target="7YQOk0jtN4cWd0VONJ17-61" edge="1">
          <mxGeometry relative="1" as="geometry">
            <Array as="points">
              <mxPoint x="500" y="595" />
            </Array>
          </mxGeometry>
        </mxCell>
        <mxCell id="7YQOk0jtN4cWd0VONJ17-57" value="" style="rounded=1;whiteSpace=wrap;html=1;absoluteArcSize=1;arcSize=14;strokeWidth=2;" parent="1" vertex="1">
          <mxGeometry x="460" y="474.37" width="100" height="41.25" as="geometry" />
        </mxCell>
        <mxCell id="_dyGJRKh12PWZx9ckZMx-24" value="" style="edgeStyle=orthogonalEdgeStyle;rounded=0;orthogonalLoop=1;jettySize=auto;html=1;strokeWidth=2;" parent="1" source="7YQOk0jtN4cWd0VONJ17-61" target="_dyGJRKh12PWZx9ckZMx-23" edge="1">
          <mxGeometry relative="1" as="geometry" />
        </mxCell>
        <mxCell id="7YQOk0jtN4cWd0VONJ17-61" value="" style="rounded=1;whiteSpace=wrap;html=1;absoluteArcSize=1;arcSize=14;strokeWidth=2;" parent="1" vertex="1">
          <mxGeometry x="257.98" y="570" width="130" height="50" as="geometry" />
        </mxCell>
        <mxCell id="7YQOk0jtN4cWd0VONJ17-62" value="&lt;b&gt;&lt;font style=&quot;font-size: 13px;&quot;&gt;split the dataset into train and test sets&lt;/font&gt;&lt;/b&gt;" style="text;strokeColor=none;align=center;fillColor=none;html=1;verticalAlign=middle;whiteSpace=wrap;rounded=0;" parent="1" vertex="1">
          <mxGeometry x="261.73" y="377.5" width="120" height="30" as="geometry" />
        </mxCell>
        <mxCell id="7YQOk0jtN4cWd0VONJ17-63" value="&lt;b&gt;&lt;font style=&quot;font-size: 13px;&quot;&gt;Apply sampling&lt;/font&gt;&lt;/b&gt;" style="text;strokeColor=none;align=center;fillColor=none;html=1;verticalAlign=middle;whiteSpace=wrap;rounded=0;" parent="1" vertex="1">
          <mxGeometry x="450" y="481" width="120" height="30" as="geometry" />
        </mxCell>
        <mxCell id="7YQOk0jtN4cWd0VONJ17-67" value="&lt;b&gt;&lt;font style=&quot;font-size: 13px;&quot;&gt;Initialize parameters for the class&lt;/font&gt;&lt;/b&gt;" style="text;strokeColor=none;align=center;fillColor=none;html=1;verticalAlign=middle;whiteSpace=wrap;rounded=0;" parent="1" vertex="1">
          <mxGeometry x="262.98" y="580" width="120" height="30" as="geometry" />
        </mxCell>
        <mxCell id="7YQOk0jtN4cWd0VONJ17-68" value="" style="rounded=1;whiteSpace=wrap;html=1;absoluteArcSize=1;arcSize=14;strokeWidth=2;" parent="1" vertex="1">
          <mxGeometry x="102.5" y="310" width="130" height="52.5" as="geometry" />
        </mxCell>
        <mxCell id="7YQOk0jtN4cWd0VONJ17-31" value="" style="group;strokeWidth=4;strokeColor=none;" parent="1" vertex="1" connectable="0">
          <mxGeometry x="266.73" y="160" width="117.5" height="85" as="geometry" />
        </mxCell>
        <mxCell id="7YQOk0jtN4cWd0VONJ17-25" value="" style="verticalLabelPosition=bottom;verticalAlign=top;html=1;shape=hexagon;perimeter=hexagonPerimeter2;arcSize=6;size=0.27;strokeWidth=2;" parent="7YQOk0jtN4cWd0VONJ17-31" vertex="1">
          <mxGeometry width="108.46153846153847" height="77.27272727272727" as="geometry" />
        </mxCell>
        <mxCell id="7YQOk0jtN4cWd0VONJ17-11" value="&lt;b style=&quot;font-size: 13px;&quot;&gt;&lt;font style=&quot;font-size: 13px;&quot;&gt;Pre-process&amp;nbsp;&lt;/font&gt;&lt;/b&gt;&lt;div style=&quot;font-size: 13px;&quot;&gt;&lt;b style=&quot;&quot;&gt;&lt;font style=&quot;font-size: 13px;&quot;&gt;the data&lt;/font&gt;&lt;/b&gt;&lt;/div&gt;" style="text;strokeColor=none;align=center;fillColor=none;html=1;verticalAlign=middle;whiteSpace=wrap;rounded=0;" parent="7YQOk0jtN4cWd0VONJ17-31" vertex="1">
          <mxGeometry x="6.778846153846154" y="30.082272727272727" width="94.90384615384616" height="17.10818181818182" as="geometry" />
        </mxCell>
        <mxCell id="7YQOk0jtN4cWd0VONJ17-77" value="" style="group" parent="1" vertex="1" connectable="0">
          <mxGeometry x="440" y="260" width="120" height="35" as="geometry" />
        </mxCell>
        <mxCell id="7YQOk0jtN4cWd0VONJ17-12" value="" style="rounded=1;whiteSpace=wrap;html=1;absoluteArcSize=1;arcSize=14;strokeWidth=2;" parent="7YQOk0jtN4cWd0VONJ17-77" vertex="1">
          <mxGeometry y="-15" width="110" height="35" as="geometry" />
        </mxCell>
        <mxCell id="7YQOk0jtN4cWd0VONJ17-28" value="&lt;b style=&quot;&quot;&gt;&lt;font style=&quot;font-size: 13px;&quot;&gt;Remove stop-words&lt;/font&gt;&lt;/b&gt;" style="text;strokeColor=none;align=center;fillColor=none;html=1;verticalAlign=middle;whiteSpace=wrap;rounded=0;" parent="7YQOk0jtN4cWd0VONJ17-77" vertex="1">
          <mxGeometry y="-1.5" width="110" height="8" as="geometry" />
        </mxCell>
        <mxCell id="_dyGJRKh12PWZx9ckZMx-3" value="&lt;b&gt;&lt;font style=&quot;font-size: 13px;&quot;&gt;Yes&lt;/font&gt;&lt;/b&gt;" style="text;strokeColor=none;align=center;fillColor=none;html=1;verticalAlign=middle;whiteSpace=wrap;rounded=0;" parent="1" vertex="1">
          <mxGeometry x="282.97999999999996" y="540" width="120" height="30" as="geometry" />
        </mxCell>
        <mxCell id="_dyGJRKh12PWZx9ckZMx-4" value="&lt;b&gt;&lt;font style=&quot;font-size: 13px;&quot;&gt;No&lt;/font&gt;&lt;/b&gt;" style="text;strokeColor=none;align=center;fillColor=none;html=1;verticalAlign=middle;whiteSpace=wrap;rounded=0;" parent="1" vertex="1">
          <mxGeometry x="354" y="470" width="120" height="30" as="geometry" />
        </mxCell>
        <mxCell id="_dyGJRKh12PWZx9ckZMx-5" value="" style="whiteSpace=wrap;html=1;rounded=1;arcSize=14;strokeWidth=2;" parent="1" vertex="1">
          <mxGeometry x="430" y="327.5" width="120" height="35" as="geometry" />
        </mxCell>
        <mxCell id="_dyGJRKh12PWZx9ckZMx-7" value="&lt;span style=&quot;font-size: 13px;&quot;&gt;&lt;b&gt;Apply TF-IDF vectorization&lt;/b&gt;&lt;/span&gt;" style="text;strokeColor=none;align=center;fillColor=none;html=1;verticalAlign=middle;whiteSpace=wrap;rounded=0;" parent="1" vertex="1">
          <mxGeometry x="430" y="327.5" width="120" height="30" as="geometry" />
        </mxCell>
        <mxCell id="_dyGJRKh12PWZx9ckZMx-11" value="&lt;span style=&quot;font-size: 13px;&quot;&gt;&lt;b&gt;use if statement to convert the rating (label) to binary&lt;/b&gt;&lt;/span&gt;" style="text;strokeColor=none;align=center;fillColor=none;html=1;verticalAlign=middle;whiteSpace=wrap;rounded=0;" parent="1" vertex="1">
          <mxGeometry x="104.5" y="321.25" width="120" height="30" as="geometry" />
        </mxCell>
        <mxCell id="_dyGJRKh12PWZx9ckZMx-15" style="edgeStyle=orthogonalEdgeStyle;rounded=0;orthogonalLoop=1;jettySize=auto;html=1;entryX=0.5;entryY=0;entryDx=0;entryDy=0;entryPerimeter=0;strokeWidth=2;" parent="1" source="7YQOk0jtN4cWd0VONJ17-56" target="7YQOk0jtN4cWd0VONJ17-54" edge="1">
          <mxGeometry relative="1" as="geometry" />
        </mxCell>
        <mxCell id="_dyGJRKh12PWZx9ckZMx-27" value="" style="edgeStyle=orthogonalEdgeStyle;rounded=0;orthogonalLoop=1;jettySize=auto;html=1;strokeWidth=2;" parent="1" source="_dyGJRKh12PWZx9ckZMx-23" target="_dyGJRKh12PWZx9ckZMx-26" edge="1">
          <mxGeometry relative="1" as="geometry" />
        </mxCell>
        <mxCell id="_dyGJRKh12PWZx9ckZMx-23" value="" style="whiteSpace=wrap;html=1;rounded=1;arcSize=14;strokeWidth=2;" parent="1" vertex="1">
          <mxGeometry x="254.23000000000002" y="655" width="137.5" height="45" as="geometry" />
        </mxCell>
        <mxCell id="_dyGJRKh12PWZx9ckZMx-25" value="&lt;b&gt;&lt;font style=&quot;font-size: 13px;&quot;&gt;Calculate the priors and likelihoods&lt;/font&gt;&lt;/b&gt;" style="text;strokeColor=none;align=center;fillColor=none;html=1;verticalAlign=middle;whiteSpace=wrap;rounded=0;" parent="1" vertex="1">
          <mxGeometry x="257.98" y="662.5" width="130" height="30" as="geometry" />
        </mxCell>
        <mxCell id="_dyGJRKh12PWZx9ckZMx-31" value="" style="edgeStyle=orthogonalEdgeStyle;rounded=0;orthogonalLoop=1;jettySize=auto;html=1;strokeWidth=2;" parent="1" source="_dyGJRKh12PWZx9ckZMx-26" target="_dyGJRKh12PWZx9ckZMx-30" edge="1">
          <mxGeometry relative="1" as="geometry" />
        </mxCell>
        <mxCell id="_dyGJRKh12PWZx9ckZMx-26" value="" style="whiteSpace=wrap;html=1;rounded=1;arcSize=14;strokeWidth=2;" parent="1" vertex="1">
          <mxGeometry x="263.75" y="729" width="120" height="42.5" as="geometry" />
        </mxCell>
        <mxCell id="_dyGJRKh12PWZx9ckZMx-29" value="&lt;b&gt;&lt;font style=&quot;font-size: 13px;&quot;&gt;Define the predict function&lt;/font&gt;&lt;/b&gt;" style="text;strokeColor=none;align=center;fillColor=none;html=1;verticalAlign=middle;whiteSpace=wrap;rounded=0;" parent="1" vertex="1">
          <mxGeometry x="267.98" y="735.25" width="110" height="30" as="geometry" />
        </mxCell>
        <mxCell id="_dyGJRKh12PWZx9ckZMx-33" value="" style="edgeStyle=orthogonalEdgeStyle;rounded=0;orthogonalLoop=1;jettySize=auto;html=1;strokeWidth=2;" parent="1" source="_dyGJRKh12PWZx9ckZMx-30" target="_dyGJRKh12PWZx9ckZMx-32" edge="1">
          <mxGeometry relative="1" as="geometry" />
        </mxCell>
        <mxCell id="_dyGJRKh12PWZx9ckZMx-30" value="" style="whiteSpace=wrap;html=1;rounded=1;arcSize=14;strokeWidth=2;" parent="1" vertex="1">
          <mxGeometry x="263.46" y="804" width="120" height="50" as="geometry" />
        </mxCell>
        <mxCell id="_dyGJRKh12PWZx9ckZMx-28" value="&lt;b&gt;&lt;font style=&quot;font-size: 13px;&quot;&gt;Train model on the train data&lt;/font&gt;&lt;/b&gt;" style="text;strokeColor=none;align=center;fillColor=none;html=1;verticalAlign=middle;whiteSpace=wrap;rounded=0;" parent="1" vertex="1">
          <mxGeometry x="258.46" y="814" width="130" height="30" as="geometry" />
        </mxCell>
        <mxCell id="_dyGJRKh12PWZx9ckZMx-37" value="" style="edgeStyle=orthogonalEdgeStyle;rounded=0;orthogonalLoop=1;jettySize=auto;html=1;strokeWidth=2;" parent="1" source="_dyGJRKh12PWZx9ckZMx-32" target="_dyGJRKh12PWZx9ckZMx-36" edge="1">
          <mxGeometry relative="1" as="geometry" />
        </mxCell>
        <mxCell id="_dyGJRKh12PWZx9ckZMx-32" value="" style="whiteSpace=wrap;html=1;rounded=1;arcSize=14;strokeWidth=2;" parent="1" vertex="1">
          <mxGeometry x="263.75" y="887" width="117.5" height="45" as="geometry" />
        </mxCell>
        <mxCell id="_dyGJRKh12PWZx9ckZMx-34" value="&lt;span style=&quot;font-size: 13px;&quot;&gt;&lt;b&gt;Predict on the test data&lt;/b&gt;&lt;/span&gt;" style="text;strokeColor=none;align=center;fillColor=none;html=1;verticalAlign=middle;whiteSpace=wrap;rounded=0;" parent="1" vertex="1">
          <mxGeometry x="268.75" y="894.5" width="110" height="30" as="geometry" />
        </mxCell>
        <mxCell id="_dyGJRKh12PWZx9ckZMx-54" value="" style="edgeStyle=orthogonalEdgeStyle;rounded=0;orthogonalLoop=1;jettySize=auto;html=1;strokeWidth=2;" parent="1" source="_dyGJRKh12PWZx9ckZMx-36" target="_dyGJRKh12PWZx9ckZMx-53" edge="1">
          <mxGeometry relative="1" as="geometry" />
        </mxCell>
        <mxCell id="_dyGJRKh12PWZx9ckZMx-79" value="" style="edgeStyle=orthogonalEdgeStyle;rounded=0;orthogonalLoop=1;jettySize=auto;html=1;" parent="1" source="_dyGJRKh12PWZx9ckZMx-36" target="_dyGJRKh12PWZx9ckZMx-78" edge="1">
          <mxGeometry relative="1" as="geometry" />
        </mxCell>
        <mxCell id="_dyGJRKh12PWZx9ckZMx-80" value="" style="edgeStyle=orthogonalEdgeStyle;rounded=0;orthogonalLoop=1;jettySize=auto;html=1;strokeWidth=2;" parent="1" source="_dyGJRKh12PWZx9ckZMx-36" target="_dyGJRKh12PWZx9ckZMx-78" edge="1">
          <mxGeometry relative="1" as="geometry" />
        </mxCell>
        <mxCell id="_dyGJRKh12PWZx9ckZMx-86" value="" style="edgeStyle=orthogonalEdgeStyle;rounded=0;orthogonalLoop=1;jettySize=auto;html=1;strokeWidth=2;" parent="1" source="_dyGJRKh12PWZx9ckZMx-36" target="_dyGJRKh12PWZx9ckZMx-85" edge="1">
          <mxGeometry relative="1" as="geometry" />
        </mxCell>
        <mxCell id="_dyGJRKh12PWZx9ckZMx-88" value="" style="edgeStyle=orthogonalEdgeStyle;rounded=0;orthogonalLoop=1;jettySize=auto;html=1;strokeWidth=2;" parent="1" source="_dyGJRKh12PWZx9ckZMx-36" target="_dyGJRKh12PWZx9ckZMx-87" edge="1">
          <mxGeometry relative="1" as="geometry" />
        </mxCell>
        <mxCell id="_dyGJRKh12PWZx9ckZMx-36" value="" style="whiteSpace=wrap;html=1;rounded=1;arcSize=14;strokeWidth=2;" parent="1" vertex="1">
          <mxGeometry x="258.77" y="960" width="128.23" height="46" as="geometry" />
        </mxCell>
        <mxCell id="_dyGJRKh12PWZx9ckZMx-38" value="&lt;b&gt;&lt;font style=&quot;font-size: 13px;&quot;&gt;Evaluate model&#39;s performance&lt;/font&gt;&lt;/b&gt;" style="text;strokeColor=none;align=center;fillColor=none;html=1;verticalAlign=middle;whiteSpace=wrap;rounded=0;" parent="1" vertex="1">
          <mxGeometry x="257.5" y="968" width="130" height="30" as="geometry" />
        </mxCell>
        <mxCell id="_dyGJRKh12PWZx9ckZMx-48" style="edgeStyle=orthogonalEdgeStyle;rounded=0;orthogonalLoop=1;jettySize=auto;html=1;entryX=0.5;entryY=0;entryDx=0;entryDy=0;entryPerimeter=0;strokeWidth=2;" parent="1" source="7YQOk0jtN4cWd0VONJ17-1" target="7YQOk0jtN4cWd0VONJ17-3" edge="1">
          <mxGeometry relative="1" as="geometry">
            <Array as="points">
              <mxPoint x="321" y="60" />
              <mxPoint x="321" y="60" />
            </Array>
          </mxGeometry>
        </mxCell>
        <mxCell id="_dyGJRKh12PWZx9ckZMx-59" value="" style="edgeStyle=orthogonalEdgeStyle;rounded=0;orthogonalLoop=1;jettySize=auto;html=1;strokeWidth=2;" parent="1" source="_dyGJRKh12PWZx9ckZMx-53" target="_dyGJRKh12PWZx9ckZMx-58" edge="1">
          <mxGeometry relative="1" as="geometry" />
        </mxCell>
        <mxCell id="_dyGJRKh12PWZx9ckZMx-67" style="edgeStyle=orthogonalEdgeStyle;rounded=0;orthogonalLoop=1;jettySize=auto;html=1;entryX=0.5;entryY=0;entryDx=0;entryDy=0;" parent="1" source="_dyGJRKh12PWZx9ckZMx-53" target="_dyGJRKh12PWZx9ckZMx-56" edge="1">
          <mxGeometry relative="1" as="geometry" />
        </mxCell>
        <mxCell id="_dyGJRKh12PWZx9ckZMx-53" value="" style="rhombus;whiteSpace=wrap;html=1;rounded=1;arcSize=14;strokeWidth=2;" parent="1" vertex="1">
          <mxGeometry x="253.16000000000003" y="1040" width="139.14" height="90" as="geometry" />
        </mxCell>
        <mxCell id="_dyGJRKh12PWZx9ckZMx-20" value="&lt;b&gt;&lt;font style=&quot;font-size: 13px;&quot;&gt;is the performance satisfactory?&lt;/font&gt;&lt;/b&gt;" style="text;strokeColor=none;align=center;fillColor=none;html=1;verticalAlign=middle;whiteSpace=wrap;rounded=0;" parent="1" vertex="1">
          <mxGeometry x="276.73" y="1062" width="90" height="30" as="geometry" />
        </mxCell>
        <mxCell id="_dyGJRKh12PWZx9ckZMx-72" value="" style="edgeStyle=orthogonalEdgeStyle;rounded=0;orthogonalLoop=1;jettySize=auto;html=1;" parent="1" source="_dyGJRKh12PWZx9ckZMx-56" target="_dyGJRKh12PWZx9ckZMx-71" edge="1">
          <mxGeometry relative="1" as="geometry" />
        </mxCell>
        <mxCell id="_dyGJRKh12PWZx9ckZMx-56" value="" style="whiteSpace=wrap;html=1;rounded=1;arcSize=14;strokeWidth=2;" parent="1" vertex="1">
          <mxGeometry x="262.73" y="1160" width="120" height="40" as="geometry" />
        </mxCell>
        <mxCell id="_dyGJRKh12PWZx9ckZMx-63" value="" style="edgeStyle=orthogonalEdgeStyle;rounded=0;orthogonalLoop=1;jettySize=auto;html=1;strokeWidth=2;" parent="1" source="_dyGJRKh12PWZx9ckZMx-58" target="_dyGJRKh12PWZx9ckZMx-62" edge="1">
          <mxGeometry relative="1" as="geometry" />
        </mxCell>
        <mxCell id="_dyGJRKh12PWZx9ckZMx-68" style="edgeStyle=orthogonalEdgeStyle;rounded=0;orthogonalLoop=1;jettySize=auto;html=1;entryX=1;entryY=0.5;entryDx=0;entryDy=0;strokeWidth=2;" parent="1" source="_dyGJRKh12PWZx9ckZMx-58" target="_dyGJRKh12PWZx9ckZMx-56" edge="1">
          <mxGeometry relative="1" as="geometry">
            <Array as="points">
              <mxPoint x="500" y="1180" />
            </Array>
          </mxGeometry>
        </mxCell>
        <mxCell id="_dyGJRKh12PWZx9ckZMx-58" value="" style="whiteSpace=wrap;html=1;rounded=1;arcSize=14;strokeWidth=2;" parent="1" vertex="1">
          <mxGeometry x="440" y="1063" width="120" height="45" as="geometry" />
        </mxCell>
        <mxCell id="_dyGJRKh12PWZx9ckZMx-60" value="&lt;b&gt;&lt;font style=&quot;font-size: 13px;&quot;&gt;Tune Hyperparameters&lt;/font&gt;&lt;/b&gt;" style="text;strokeColor=none;align=center;fillColor=none;html=1;verticalAlign=middle;whiteSpace=wrap;rounded=0;" parent="1" vertex="1">
          <mxGeometry x="455" y="1070" width="90" height="30" as="geometry" />
        </mxCell>
        <mxCell id="_dyGJRKh12PWZx9ckZMx-62" value="" style="whiteSpace=wrap;html=1;rounded=1;arcSize=14;strokeWidth=2;" parent="1" vertex="1">
          <mxGeometry x="609" y="1062.5" width="120" height="44.5" as="geometry" />
        </mxCell>
        <mxCell id="_dyGJRKh12PWZx9ckZMx-64" value="&lt;b&gt;&lt;font style=&quot;font-size: 13px;&quot;&gt;Save Model&lt;/font&gt;&lt;/b&gt;" style="text;strokeColor=none;align=center;fillColor=none;html=1;verticalAlign=middle;whiteSpace=wrap;rounded=0;" parent="1" vertex="1">
          <mxGeometry x="280.48" y="1165" width="90" height="30" as="geometry" />
        </mxCell>
        <mxCell id="_dyGJRKh12PWZx9ckZMx-61" value="&lt;b&gt;&lt;font style=&quot;font-size: 13px;&quot;&gt;Adjust laplace smoothing&lt;/font&gt;&lt;/b&gt;" style="text;strokeColor=none;align=center;fillColor=none;html=1;verticalAlign=middle;whiteSpace=wrap;rounded=0;" parent="1" vertex="1">
          <mxGeometry x="589" y="1070.5" width="160" height="30" as="geometry" />
        </mxCell>
        <mxCell id="_dyGJRKh12PWZx9ckZMx-65" value="&lt;b&gt;&lt;font style=&quot;font-size: 13px;&quot;&gt;No&lt;/font&gt;&lt;/b&gt;" style="text;strokeColor=none;align=center;fillColor=none;html=1;verticalAlign=middle;whiteSpace=wrap;rounded=0;" parent="1" vertex="1">
          <mxGeometry x="360" y="1059" width="90" height="30" as="geometry" />
        </mxCell>
        <mxCell id="_dyGJRKh12PWZx9ckZMx-66" value="&lt;b&gt;&lt;font style=&quot;font-size: 13px;&quot;&gt;Yes&lt;/font&gt;&lt;/b&gt;" style="text;strokeColor=none;align=center;fillColor=none;html=1;verticalAlign=middle;whiteSpace=wrap;rounded=0;" parent="1" vertex="1">
          <mxGeometry x="293.73" y="1128" width="90" height="30" as="geometry" />
        </mxCell>
        <mxCell id="_dyGJRKh12PWZx9ckZMx-77" value="" style="edgeStyle=orthogonalEdgeStyle;rounded=0;orthogonalLoop=1;jettySize=auto;html=1;strokeWidth=2;" parent="1" source="_dyGJRKh12PWZx9ckZMx-71" target="_dyGJRKh12PWZx9ckZMx-75" edge="1">
          <mxGeometry relative="1" as="geometry" />
        </mxCell>
        <mxCell id="_dyGJRKh12PWZx9ckZMx-71" value="" style="whiteSpace=wrap;html=1;rounded=1;arcSize=14;strokeWidth=2;" parent="1" vertex="1">
          <mxGeometry x="278.02" y="1230" width="90" height="40" as="geometry" />
        </mxCell>
        <mxCell id="_dyGJRKh12PWZx9ckZMx-73" value="&lt;b&gt;&lt;font style=&quot;font-size: 13px;&quot;&gt;Deploy the Model&lt;/font&gt;&lt;/b&gt;" style="text;strokeColor=none;align=center;fillColor=none;html=1;verticalAlign=middle;whiteSpace=wrap;rounded=0;" parent="1" vertex="1">
          <mxGeometry x="276.5" y="1235" width="90" height="30" as="geometry" />
        </mxCell>
        <mxCell id="_dyGJRKh12PWZx9ckZMx-75" value="" style="strokeWidth=2;html=1;shape=mxgraph.flowchart.terminator;whiteSpace=wrap;" parent="1" vertex="1">
          <mxGeometry x="277" y="1310" width="92.96" height="40" as="geometry" />
        </mxCell>
        <mxCell id="_dyGJRKh12PWZx9ckZMx-69" value="&lt;b&gt;&lt;font style=&quot;font-size: 13px;&quot;&gt;End&lt;/font&gt;&lt;/b&gt;" style="text;strokeColor=none;align=center;fillColor=none;html=1;verticalAlign=middle;whiteSpace=wrap;rounded=0;" parent="1" vertex="1">
          <mxGeometry x="280.48" y="1315" width="90" height="30" as="geometry" />
        </mxCell>
        <mxCell id="_dyGJRKh12PWZx9ckZMx-78" value="" style="whiteSpace=wrap;html=1;rounded=1;arcSize=14;strokeWidth=2;" parent="1" vertex="1">
          <mxGeometry x="450" y="961" width="100" height="43" as="geometry" />
        </mxCell>
        <mxCell id="_dyGJRKh12PWZx9ckZMx-85" value="" style="whiteSpace=wrap;html=1;rounded=1;arcSize=14;strokeWidth=2;" parent="1" vertex="1">
          <mxGeometry x="54.65" y="1006" width="120" height="44" as="geometry" />
        </mxCell>
        <mxCell id="_dyGJRKh12PWZx9ckZMx-87" value="" style="whiteSpace=wrap;html=1;rounded=1;arcSize=14;strokeWidth=2;" parent="1" vertex="1">
          <mxGeometry x="30" y="910" width="144.65" height="50" as="geometry" />
        </mxCell>
        <mxCell id="_dyGJRKh12PWZx9ckZMx-89" value="&lt;b&gt;&lt;font style=&quot;font-size: 13px;&quot;&gt;Accuracy, precision, F1_score and recall&lt;/font&gt;&lt;/b&gt;" style="text;strokeColor=none;align=center;fillColor=none;html=1;verticalAlign=middle;whiteSpace=wrap;rounded=0;" parent="1" vertex="1">
          <mxGeometry x="22.33" y="920" width="160" height="30" as="geometry" />
        </mxCell>
        <mxCell id="_dyGJRKh12PWZx9ckZMx-91" value="&lt;b&gt;&lt;font style=&quot;font-size: 13px;&quot;&gt;Confusion Matrix&lt;/font&gt;&lt;/b&gt;" style="text;strokeColor=none;align=center;fillColor=none;html=1;verticalAlign=middle;whiteSpace=wrap;rounded=0;" parent="1" vertex="1">
          <mxGeometry x="34.64999999999998" y="1013" width="160" height="30" as="geometry" />
        </mxCell>
        <mxCell id="_dyGJRKh12PWZx9ckZMx-92" value="&lt;b&gt;&lt;font style=&quot;font-size: 13px;&quot;&gt;ROC Curve&lt;/font&gt;&lt;/b&gt;" style="text;strokeColor=none;align=center;fillColor=none;html=1;verticalAlign=middle;whiteSpace=wrap;rounded=0;" parent="1" vertex="1">
          <mxGeometry x="420" y="973.5" width="160" height="18" as="geometry" />
        </mxCell>
        <mxCell id="nD_lNcWRSpMaCCK5NxTk-4" value="" style="edgeStyle=orthogonalEdgeStyle;rounded=0;orthogonalLoop=1;jettySize=auto;html=1;strokeWidth=2;" edge="1" parent="1" source="7YQOk0jtN4cWd0VONJ17-3" target="nD_lNcWRSpMaCCK5NxTk-3">
          <mxGeometry relative="1" as="geometry" />
        </mxCell>
        <mxCell id="7YQOk0jtN4cWd0VONJ17-3" value="" style="strokeWidth=2;html=1;shape=mxgraph.flowchart.database;whiteSpace=wrap;" parent="1" vertex="1">
          <mxGeometry x="273.93" y="75" width="94.06" height="50" as="geometry" />
        </mxCell>
        <mxCell id="7YQOk0jtN4cWd0VONJ17-5" value="&lt;b&gt;&lt;font style=&quot;font-size: 13px;&quot;&gt;Load dataset&amp;nbsp;&lt;/font&gt;&lt;/b&gt;" style="text;strokeColor=none;align=center;fillColor=none;html=1;verticalAlign=middle;whiteSpace=wrap;rounded=0;container=1;" parent="1" vertex="1">
          <mxGeometry x="270.96000000000004" y="90.14" width="100" height="32.86" as="geometry" />
        </mxCell>
        <mxCell id="nD_lNcWRSpMaCCK5NxTk-3" value="" style="rounded=1;whiteSpace=wrap;html=1;strokeWidth=2;" vertex="1" parent="1">
          <mxGeometry x="440" y="75" width="120" height="50" as="geometry" />
        </mxCell>
        <mxCell id="nD_lNcWRSpMaCCK5NxTk-5" value="&lt;b style=&quot;&quot;&gt;&lt;font style=&quot;font-size: 13px;&quot;&gt;Merge the train and test dataset&lt;/font&gt;&lt;/b&gt;" style="text;strokeColor=none;align=center;fillColor=none;html=1;verticalAlign=middle;whiteSpace=wrap;rounded=0;" vertex="1" parent="1">
          <mxGeometry x="437" y="85" width="120" height="30" as="geometry" />
        </mxCell>
      </root>
    </mxGraphModel>
  </diagram>
</mxfile>
